<mxfile host="app.diagrams.net" modified="2022-04-19T11:26:24.851Z" agent="5.0 (Windows)" etag="BEe0ozLWAXnJIWOkX8rZ" version="17.4.5" type="github">
  <diagram name="Page-1" id="d9b1e647-80fa-b4a2-5024-87a742678bcc">
    <mxGraphModel dx="1038" dy="536" grid="1" gridSize="10" guides="1" tooltips="1" connect="1" arrows="1" fold="1" page="1" pageScale="1" pageWidth="1100" pageHeight="850" background="none" math="0" shadow="0">
      <root>
        <mxCell id="0" />
        <mxCell id="1" parent="0" />
        <mxCell id="57fe6abec08f04cb-2" value="Architecture&lt;br&gt;Style" style="shape=step;whiteSpace=wrap;html=1;fontSize=28;fillColor=#0075E8;fontColor=#FFFFFF;strokeColor=none;" parent="1" vertex="1">
          <mxGeometry x="100" y="180" width="310" height="80" as="geometry" />
        </mxCell>
        <mxCell id="57fe6abec08f04cb-4" value="Architecture&lt;br&gt;Pattern" style="shape=step;whiteSpace=wrap;html=1;fontSize=28;fillColor=#0062C4;fontColor=#FFFFFF;strokeColor=none;" parent="1" vertex="1">
          <mxGeometry x="370" y="180" width="340" height="80" as="geometry" />
        </mxCell>
        <mxCell id="57fe6abec08f04cb-6" value="Design&lt;br&gt;Pattern" style="shape=step;whiteSpace=wrap;html=1;fontSize=28;fillColor=#004D99;fontColor=#FFFFFF;strokeColor=none;" parent="1" vertex="1">
          <mxGeometry x="670" y="180" width="340" height="80" as="geometry" />
        </mxCell>
        <mxCell id="57fe6abec08f04cb-7" value="Architecture" style="text;html=1;strokeColor=none;fillColor=#61BAFF;align=center;verticalAlign=middle;whiteSpace=wrap;fontSize=54;fontStyle=1;fontColor=#004D99;" parent="1" vertex="1">
          <mxGeometry x="120" y="110" width="860" height="60" as="geometry" />
        </mxCell>
        <mxCell id="57fe6abec08f04cb-8" value="&lt;div&gt;Architecture style is:&lt;/div&gt;&lt;div&gt;&lt;ul&gt;&lt;li&gt;highest level description/idea of how to organize code&lt;br&gt;&lt;/li&gt;&lt;li&gt;can be implemented in various ways&lt;br&gt;&lt;/li&gt;&lt;/ul&gt;&lt;/div&gt;" style="text;spacingTop=-5;fillColor=#ffffff;whiteSpace=wrap;html=1;align=left;fontSize=12;fontFamily=Helvetica;fillColor=none;strokeColor=none;" parent="1" vertex="1">
          <mxGeometry x="100" y="280" width="140" height="470" as="geometry" />
        </mxCell>
        <mxCell id="57fe6abec08f04cb-9" value="&lt;div&gt;Examples:&lt;/div&gt;&lt;div&gt;&lt;ul&gt;&lt;li&gt;Monolith&lt;/li&gt;&lt;li&gt;Component based (modulith)&lt;br&gt;&lt;/li&gt;&lt;li&gt;Micro-services&lt;/li&gt;&lt;li&gt;Layered&lt;br&gt;&lt;/li&gt;&lt;li&gt;&lt;br&gt;&lt;/li&gt;&lt;li&gt;Pipes and filters&lt;/li&gt;&lt;li&gt;Event driven&lt;/li&gt;&lt;li&gt;Publish-subscribe&lt;/li&gt;&lt;li&gt;&lt;br&gt;&lt;/li&gt;&lt;li&gt;Plug-in based&lt;/li&gt;&lt;li&gt;Client-server&lt;/li&gt;&lt;li&gt;Service oriented&lt;/li&gt;&lt;li&gt;RESTFul&lt;br&gt;&lt;/li&gt;&lt;/ul&gt;&lt;div&gt;Some more links:&lt;/div&gt;&lt;div&gt;&lt;a href=&quot;https://www.akana.com/blog/api-vs-soa-are-they-different&quot;&gt;API SOA Microservices&lt;/a&gt;&lt;/div&gt;&lt;div&gt;&lt;a href=&quot;https://www.akana.com/blog/what-is-rest-api&quot;&gt;Representational state transfer (REST)&lt;/a&gt;&lt;/div&gt;&lt;/div&gt;" style="text;spacingTop=-5;fillColor=#ffffff;whiteSpace=wrap;html=1;align=left;fontSize=12;fontFamily=Helvetica;fillColor=none;strokeColor=none;" parent="1" vertex="1">
          <mxGeometry x="250" y="280" width="140" height="470" as="geometry" />
        </mxCell>
        <mxCell id="57fe6abec08f04cb-10" value="&lt;div&gt;Architecture Pattern is:&lt;/div&gt;&lt;div&gt;&lt;ul&gt;&lt;li&gt;recurring solution to to recurring problems&lt;/li&gt;&lt;li&gt;solve problems related/described in architecture styles&lt;br&gt;&lt;/li&gt;&lt;/ul&gt;&lt;/div&gt;" style="text;spacingTop=-5;fillColor=#ffffff;whiteSpace=wrap;html=1;align=left;fontSize=12;fontFamily=Helvetica;fillColor=none;strokeColor=none;" parent="1" vertex="1">
          <mxGeometry x="400" y="280" width="140" height="470" as="geometry" />
        </mxCell>
        <mxCell id="57fe6abec08f04cb-11" value="&lt;div&gt;Examples:&lt;/div&gt;&lt;div&gt;&lt;ul&gt;&lt;li&gt;SOAP/WSDL enable service oriented architecture&lt;br&gt;&lt;/li&gt;&lt;/ul&gt;&lt;/div&gt;" style="text;spacingTop=-5;fillColor=#ffffff;whiteSpace=wrap;html=1;align=left;fontSize=12;fontFamily=Helvetica;fillColor=none;strokeColor=none;" parent="1" vertex="1">
          <mxGeometry x="550" y="280" width="140" height="470" as="geometry" />
        </mxCell>
        <mxCell id="57fe6abec08f04cb-12" value="Design pattern is:" style="text;spacingTop=-5;fillColor=#ffffff;whiteSpace=wrap;html=1;align=left;fontSize=12;fontFamily=Helvetica;fillColor=none;strokeColor=none;" parent="1" vertex="1">
          <mxGeometry x="700" y="280" width="140" height="470" as="geometry" />
        </mxCell>
        <mxCell id="57fe6abec08f04cb-13" value="&lt;div&gt;Examples:&lt;/div&gt;&lt;div&gt;&lt;ul&gt;&lt;li&gt;Creational&lt;/li&gt;&lt;li&gt;Structural&lt;br&gt;&lt;/li&gt;&lt;li&gt;Behavioral&lt;/li&gt;&lt;/ul&gt;&lt;/div&gt;" style="text;spacingTop=-5;fillColor=#ffffff;whiteSpace=wrap;html=1;align=left;fontSize=12;fontFamily=Helvetica;fillColor=none;strokeColor=none;" parent="1" vertex="1">
          <mxGeometry x="855" y="280" width="140" height="470" as="geometry" />
        </mxCell>
        <UserObject label="&lt;div&gt;Based on:&lt;br&gt;&lt;/div&gt;&lt;div&gt;https://herbertograca.com/2017/07/28/architectural-styles-vs-architectural-patterns-vs-design-patterns/?utm_source=pocket_mylist&lt;/div&gt;" link="https://herbertograca.com/2017/07/28/architectural-styles-vs-architectural-patterns-vs-design-patterns/?utm_source=pocket_mylist" id="VXPDmnrQG1_MW_k54ZVx-1">
          <mxCell style="text;whiteSpace=wrap;html=1;" vertex="1" parent="1">
            <mxGeometry x="120" y="800" width="550" height="40" as="geometry" />
          </mxCell>
        </UserObject>
      </root>
    </mxGraphModel>
  </diagram>
</mxfile>
